HIERARCHY
ROOT Hips
{
	OFFSET 0.000000 0.000000 0.000000
	CHANNELS 6 Xposition Yposition Zposition Zrotation Yrotation Xrotation 
	JOINT LeftUpLeg
	{
		OFFSET 1.363060 -1.794630 0.839290
		CHANNELS 3 Zrotation Yrotation Xrotation
		JOINT LeftLeg
		{
			OFFSET 2.448110 -6.726130 0.000000
			CHANNELS 3 Zrotation Yrotation Xrotation
			JOINT LeftFoot
			{
				OFFSET 2.562200 -7.039590 0.000000
				CHANNELS 3 Zrotation Yrotation Xrotation
				JOINT LeftToeBase
				{
					OFFSET 0.157640 -0.433110 2.322550
					CHANNELS 3 Zrotation Yrotation Xrotation
				}
			}
		}
	}
	JOINT RightUpLeg
	{
		OFFSET -1.305520 -1.794630 0.839290
		CHANNELS 3 Zrotation Yrotation Xrotation
		JOINT RightLeg
		{
			OFFSET -2.542530 -6.985550 0.000000
			CHANNELS 3 Zrotation Yrotation Xrotation
			JOINT RightFoot
			{
				OFFSET -2.568260 -7.056230 0.000000
				CHANNELS 3 Zrotation Yrotation Xrotation
				JOINT RightToeBase
				{
					OFFSET -0.164730 -0.452590 2.363150
					CHANNELS 3 Zrotation Yrotation Xrotation
				}
			}
		}
	}
	JOINT Spine
	{
		OFFSET 0.028270 2.035590 -0.193380
		CHANNELS 3 Zrotation Yrotation Xrotation
		JOINT Spine1
		{
			OFFSET 0.056720 2.048850 -0.042750
			CHANNELS 3 Zrotation Yrotation Xrotation
			JOINT Neck1
			{
				OFFSET -0.054170 1.746240 0.172020
				CHANNELS 3 Zrotation Yrotation Xrotation
				JOINT Head
				{
					OFFSET 0.104070 1.761360 -0.123970
					CHANNELS 3 Zrotation Yrotation Xrotation
				}
			}
			JOINT LeftArm
			{
				OFFSET 3.362410 1.200890 -0.311210
				CHANNELS 3 Zrotation Yrotation Xrotation
				JOINT LeftForeArm
				{
					OFFSET 4.983000 -0.000000 -0.000000
					CHANNELS 3 Zrotation Yrotation Xrotation
					JOINT LeftHand
					{
						OFFSET 3.483560 -0.000000 -0.000000
						CHANNELS 3 Zrotation Yrotation Xrotation
						JOINT LeftHandIndex1
						{
							OFFSET 0.715260 -0.000000 -0.000000
							CHANNELS 3 Zrotation Yrotation Xrotation
						}
					}
				}
			}
			JOINT RightArm
			{
				OFFSET -3.136600 1.374050 -0.404650
				CHANNELS 3 Zrotation Yrotation Xrotation
				JOINT RightForeArm
				{
					OFFSET -5.241900 -0.000000 -0.000000
					CHANNELS 3 Zrotation Yrotation Xrotation
					JOINT RightHand
					{
						OFFSET -3.444170 -0.000000 -0.000000
						CHANNELS 3 Zrotation Yrotation Xrotation
						JOINT RightHandIndex1
						{
							OFFSET -0.622530 -0.000000 -0.000000
							CHANNELS 3 Zrotation Yrotation Xrotation
						}
					}
				}
			}
		}
	}
}
MOTION
Frames: 16
Frame Time: 0.016667
2.102659 15.880723 81.983345 -3.698786 3.370918 5.068069 -14.641580 -13.797678 -32.909077 3.047551 0.425830 15.551729 2.051398 0.748723 11.118327 -0.286365 -2.434078 -4.564316 25.275913 12.700162 -26.393951 -15.831925 -17.267435 68.290485 1.387669 -10.426305 4.496508 -2.035776 -5.422441 29.010376 8.721201 2.221464 3.352944 -1.146286 2.291583 -1.785898 -0.640687 -12.013416 9.426474 1.635907 -3.612538 12.669595 -96.996992 5.409385 10.341606 27.964334 -34.620082 -5.123316 0.108018 3.600267 7.957544 5.950691 34.299063 2.373143 87.541019 -2.334881 21.841663 -27.796705 35.970680 -5.792325 -2.996405 0.796545 -8.836837 -21.984484 13.828260 -6.512788 
2.193988 15.945814 82.319000 -3.550972 2.802477 5.304335 -15.156798 -13.370301 -32.595279 3.183985 1.012685 16.807839 1.924776 0.261218 8.913818 -0.443524 -2.238267 -4.451441 25.433122 12.011789 -27.400019 -15.273682 -16.739932 65.383801 0.344336 -7.674749 -4.567901 -0.925301 -5.954937 28.000870 8.592461 2.143843 3.025554 -0.959314 2.368976 -1.721902 -0.726926 -12.290916 9.441552 1.679262 -3.671383 12.611869 -97.129760 5.517365 9.784562 27.925901 -34.608839 -5.189803 0.187075 3.574254 7.805705 5.977457 34.239234 2.337891 86.918267 -2.685608 21.976012 -27.442361 35.466936 -5.374355 -3.280437 1.040307 -8.205178 -21.980672 13.404142 -6.644204 
2.278564 16.012604 82.629395 -3.468107 2.051354 5.658291 -15.419990 -13.008884 -32.559325 3.318601 1.735912 18.131391 1.814895 -0.046904 7.086515 -0.508331 -2.001827 -4.145879 26.500628 12.204834 -28.412989 -15.436434 -15.151570 60.697312 0.054208 -4.818620 -11.292644 -1.049398 -6.154177 27.014284 8.579163 2.270675 2.583889 -0.896064 2.265256 -1.596430 -0.781163 -12.323606 9.485312 1.634069 -3.641157 12.570633 -97.211017 5.718995 9.415675 28.055361 -34.632997 -5.376881 0.112715 3.543183 7.705108 6.037002 34.142377 2.127483 86.418502 -2.921666 21.988337 -27.159151 34.877560 -5.024398 -3.172998 0.949497 -7.739958 -22.152789 13.285733 -6.665354 
2.350482 16.076674 82.921997 -3.477246 1.287482 5.960365 -15.598854 -12.795711 -32.366989 3.650972 2.340751 19.267000 1.712923 -0.167428 5.443458 -0.510499 -1.673979 -3.846692 26.791273 12.364056 -28.950026 -13.922111 -13.707161 54.550790 -0.750204 -2.775392 -15.735567 -0.520405 -6.630466 26.316974 8.578557 2.373451 2.178737 -0.762712 2.286037 -1.423124 -0.865480 -12.348811 9.500377 1.643848 -3.689457 12.561366 -97.260374 5.848704 9.149107 28.128124 -34.528181 -5.420770 0.207107 3.504932 7.633380 5.990800 34.075951 1.967150 86.008617 -3.140239 21.788970 -26.832480 34.310692 -4.699079 -3.266817 1.082296 -7.112692 -22.076980 12.918613 -6.781068 
2.415116 16.132544 83.203880 -3.404829 0.665186 6.373034 -15.849181 -12.753863 -32.276290 3.972602 2.818557 20.366472 1.534230 -0.148047 3.900760 -0.472420 -1.289800 -3.360280 26.644967 13.136331 -29.073695 -12.305032 -12.349406 47.502472 -1.374506 -0.923832 -17.453140 -0.681940 -6.546278 25.480269 8.501356 2.399747 1.701949 -0.698830 2.165671 -1.343766 -0.912826 -12.221661 9.566500 1.624100 -3.656974 12.549579 -97.195626 6.148904 9.067469 28.272100 -34.493742 -5.601675 0.151534 3.476572 7.603031 6.078082 33.999374 1.760361 85.808028 -3.329461 21.183153 -26.556695 33.780124 -4.588402 -2.940051 0.865055 -6.749578 -22.374297 12.949361 -6.852018 
2.463687 16.189421 83.479149 -3.408090 0.222082 6.698706 -16.016141 -12.755519 -32.090839 4.331277 3.388449 21.372442 1.559674 -0.326381 2.616635 -0.494876 -0.861956 -2.863847 25.846324 14.120672 -28.576513 -9.199680 -10.242180 39.840150 -2.300111 1.193253 -18.443079 -0.471075 -6.949629 24.179628 8.429822 2.411315 1.233836 -0.526481 2.014853 -1.206380 -1.059466 -12.135258 9.599588 1.648746 -3.674660 12.556508 -97.127445 6.350673 9.025732 28.351506 -34.386212 -5.632682 0.251334 3.484214 7.604875 6.074303 33.935841 1.626671 85.794140 -3.460851 20.342493 -26.263973 33.268690 -4.543423 -2.790934 0.795070 -6.390127 -22.414724 12.771497 -7.052416 
2.498819 16.240157 83.749313 -3.199731 0.152216 6.954759 -16.483189 -12.976472 -31.677820 4.673138 3.719150 22.205229 1.490174 -0.401896 1.460354 -0.455612 -0.298545 -2.396290 25.032040 14.679332 -28.197043 -7.445429 -8.662841 34.880118 -2.712554 1.110345 -17.118891 0.123783 -6.420771 23.611203 8.115035 2.151634 0.933266 -0.296198 1.723839 -1.169597 -1.167905 -11.945694 9.596189 1.596235 -3.679024 12.625613 -96.977012 6.550753 9.122407 28.444195 -34.286000 -5.726732 0.195312 3.539665 7.569204 6.069649 33.881541 1.480967 85.906059 -3.499876 19.256201 -25.939175 32.683058 -4.650989 -2.424589 0.701668 -6.152401 -22.714260 12.808489 -7.302640 
2.522775 16.284381 84.018768 -3.122076 0.125665 7.214802 -16.782094 -13.089117 -31.251686 4.953928 4.010000 22.939051 1.481547 -0.604847 0.210250 -0.521484 0.189560 -1.766925 24.393549 14.724320 -27.417060 -5.832551 -7.081720 31.153064 -2.724721 0.989265 -15.977281 0.344060 -5.821629 22.895480 7.917299 2.013298 0.610324 -0.148289 1.392801 -1.187620 -1.247315 -11.673452 9.703275 1.603165 -3.738657 12.636054 -96.756283 6.750603 9.165250 28.495029 -34.231077 -5.706750 0.274530 3.564561 7.635602 6.044448 33.850331 1.441087 86.217523 -3.610979 18.062225 -25.559941 32.162280 -4.817069 -2.222021 0.474704 -6.107669 -22.843561 12.964062 -7.529974 
2.528126 16.328141 84.282036 -2.937199 0.229836 7.361930 -17.115636 -13.015928 -30.809336 4.991150 4.301942 23.693267 1.590272 -0.936166 -0.797828 -0.512363 0.681580 -1.194258 23.798893 14.772898 -26.823122 -4.615359 -5.916211 28.976102 -1.926268 0.506067 -14.989861 0.096779 -5.421194 22.299252 7.657238 1.730617 0.381701 0.016973 1.153157 -1.173109 -1.306311 -11.458810 9.665238 1.551653 -3.763364 12.712184 -96.561705 6.931447 9.316698 28.539444 -34.107903 -5.673715 0.250327 3.558221 7.638402 6.017496 33.836779 1.401517 86.545396 -3.734459 16.899050 -25.247335 31.608094 -4.960795 -2.013237 0.500510 -5.952064 -23.069420 12.999797 -7.809827 
2.526587 16.363341 84.546051 -2.847418 0.572975 7.491452 -17.378105 -13.102150 -30.217124 5.092879 4.492658 24.307039 1.651429 -1.319500 -1.930800 -0.541185 1.061748 -0.736785 23.514531 14.803292 -26.396846 -4.076954 -5.744987 28.039039 -1.467667 0.351834 -14.462273 -0.312645 -5.047692 21.974773 7.497751 1.321681 0.197389 0.110086 0.931234 -1.234978 -1.349878 -11.232805 9.748715 1.520582 -3.845626 12.751748 -96.259909 7.137746 9.450816 28.526308 -34.099122 -5.612478 0.243763 3.556696 7.719625 6.015046 33.840513 1.395206 86.879617 -3.935620 15.776538 -24.856148 31.107721 -5.111385 -1.835880 0.315274 -5.992587 -23.238420 13.222215 -7.943127 
2.515449 16.392014 84.805557 -2.663814 0.970381 7.596276 -17.665322 -12.941187 -29.811148 4.946508 4.652950 25.117968 1.807972 -1.833222 -2.952638 -0.563850 1.383664 -0.213318 23.270675 15.012397 -25.880627 -3.853400 -5.860943 27.564910 -0.716643 0.140570 -14.427725 -0.669368 -4.921986 22.397435 7.245242 0.885194 -0.034326 0.203950 0.742240 -1.222664 -1.419316 -10.989239 9.853585 1.453076 -3.854912 12.779370 -95.994455 7.296791 9.645145 28.560151 -34.045233 -5.547349 0.217895 3.552062 7.791265 5.968302 33.875763 1.423838 87.258419 -4.196079 14.881100 -24.627804 30.689818 -5.184774 -1.773645 0.190982 -5.773628 -23.348017 13.304907 -8.104087 
2.498579 16.418019 85.060219 -2.612172 1.509285 7.602920 -17.800154 -12.812730 -29.292251 4.801253 4.784857 25.901563 1.900742 -2.379960 -3.941655 -0.624446 1.516329 0.141113 23.331117 15.084165 -25.528376 -4.298922 -6.733671 28.651251 -0.303020 0.232686 -15.059072 -1.007751 -4.899176 22.940576 7.184715 0.457819 -0.201043 0.169512 0.573808 -1.204823 -1.409944 -10.776354 9.982765 1.426962 -3.868400 12.858549 -95.630294 7.468455 9.826652 28.498155 -34.055662 -5.405684 0.192520 3.521161 7.903860 5.973330 33.891682 1.485005 87.541553 -4.526568 14.005768 -24.319717 30.176460 -5.198880 -1.703277 0.110471 -5.757330 -23.493301 13.489188 -8.077043 
2.478674 16.439307 85.307205 -2.552161 2.023882 7.651012 -17.888111 -12.579030 -28.943515 4.595539 4.937595 26.768317 2.071691 -3.005997 -4.820304 -0.649470 1.667179 0.414191 23.504048 15.107659 -24.989393 -4.803587 -7.379116 29.307192 0.019756 0.359550 -15.788326 -1.320783 -5.119536 24.009579 7.065692 0.080652 -0.420860 0.154988 0.412818 -1.163759 -1.358797 -10.554794 10.115999 1.357117 -3.866067 12.917268 -95.263885 7.537281 10.012202 28.397376 -33.989946 -5.267764 0.175958 3.500956 8.038453 5.911741 33.907158 1.566791 87.831404 -4.875735 13.224091 -24.081648 29.841242 -5.187917 -1.700672 -0.130689 -5.455252 -23.373410 13.622941 -8.151498 
2.460396 16.458396 85.542343 -2.487229 2.641874 7.617082 -17.998535 -12.420333 -28.487998 4.408652 5.051136 27.570612 2.145959 -3.598435 -5.584517 -0.702880 1.634485 0.687599 23.826798 15.357280 -24.117264 -5.768090 -8.189370 29.564341 0.122993 0.485166 -16.418322 -1.455565 -5.450329 25.017577 6.985669 -0.370303 -0.578133 0.110366 0.343185 -1.118305 -1.438970 -10.374037 10.287878 1.361872 -3.824213 13.058968 -94.945362 7.637477 10.207927 28.250513 -33.902317 -5.083054 0.149533 3.463969 8.187150 5.896346 33.902639 1.625532 88.078291 -5.233849 12.388302 -23.799559 29.368313 -5.073071 -1.658874 -0.149226 -5.278491 -23.384648 13.713310 -8.118772 
2.443892 16.473681 85.765259 -2.453941 3.224472 7.629585 -18.040879 -12.262140 -28.136838 4.241715 5.204223 28.353009 2.343439 -4.227528 -6.261805 -0.783107 1.717331 0.912328 24.100263 15.336532 -23.302003 -6.238085 -8.630467 29.661270 0.151832 0.459304 -17.172257 -1.537896 -5.574064 26.069269 6.908659 -0.729493 -0.817073 0.088162 0.222539 -1.034522 -1.439371 -10.207192 10.516284 1.325288 -3.776726 13.165481 -94.725117 7.670501 10.297144 28.147498 -33.841221 -4.936586 0.139383 3.500829 8.392431 5.857376 33.906590 1.732197 88.388265 -5.556843 11.611395 -23.648393 29.186335 -5.016278 -1.589444 -0.409079 -5.054438 -23.306097 13.888402 -8.154774 
2.430190 16.490216 85.972473 -2.419873 3.729708 7.593114 -18.106109 -12.084065 -27.730249 4.125997 5.331588 29.032084 2.459140 -4.774294 -6.802429 -0.843900 1.602635 1.106873 24.529058 15.380785 -22.365359 -6.901427 -8.876690 29.652141 0.264654 0.294432 -17.791216 -1.548604 -5.911886 26.783883 6.824856 -1.036851 -0.991692 0.021358 0.127359 -0.954907 -1.471753 -9.974688 10.728498 1.265109 -3.727085 13.364801 -94.514056 7.686491 10.280528 27.950025 -33.714836 -4.736134 0.112370 3.500830 8.551837 5.830658 33.897188 1.807527 88.741280 -5.808210 10.730228 -23.418424 28.802970 -4.949136 -1.569625 -0.421506 -4.900531 -23.362831 13.999566 -8.210661 
